<svg version="1.1" xmlns="http://www.w3.org/2000/svg" xmlns:xlink="http://www.w3.org/1999/xlink" width="437.57523" height="94.83418" viewBox="0,0,437.57523,94.83418"><g transform="translate(-21.21239,-132.58291)"><g data-paper-data="{&quot;isPaintingLayer&quot;:true}" stroke="none" stroke-width="1" stroke-linecap="butt" stroke-linejoin="miter" stroke-miterlimit="10" stroke-dasharray="" stroke-dashoffset="0" style="mix-blend-mode: normal"><path d="M118.44528,181.19937c0,21.45201 -13.91646,39.68317 -33.11995,46.12485c-2.43082,0.48616 -3.34238,-1.0331 -3.34238,-2.30928c0,-1.64081 0.06077,-6.86707 0.06077,-13.36952c0,-4.55779 -1.51926,-7.47478 -3.28161,-8.99404c10.81716,-1.21541 22.18125,-5.34781 22.18125,-24.00437c0,-5.34781 -1.88389,-9.66252 -4.98319,-13.06567c0.48616,-1.21541 2.18774,-6.1986 -0.48616,-12.88336c0,0 -4.07163,-1.33695 -13.36952,4.98319c-3.88932,-1.09387 -8.02171,-1.64081 -12.15411,-1.64081c-4.1324,0 -8.2648,0.54694 -12.15411,1.64081c-9.2979,-6.25937 -13.36952,-4.98319 -13.36952,-4.98319c-2.6739,6.68476 -0.97233,11.66795 -0.48616,12.88336c-3.0993,3.40315 -4.98319,7.77863 -4.98319,13.06567c0,18.59579 11.30332,22.78896 22.12048,24.00437c-1.39772,1.21541 -2.6739,3.34238 -3.0993,6.50245c-2.79545,1.27618 -9.78406,3.34238 -14.15954,-4.01086c-0.91156,-1.45849 -3.64623,-5.04396 -7.47478,-4.98319c-4.07163,0.06077 -1.64081,2.30928 0.06077,3.22084c2.0662,1.15464 4.43625,5.46935 4.98319,6.86707c0.97233,2.73468 4.1324,7.96094 16.34728,5.71243c0,4.07163 0.06077,7.90017 0.06077,9.05481c0,1.27618 -0.91156,2.73468 -3.34238,2.30928c-19.32504,-6.44168 -33.2415,-24.61208 -33.2415,-46.12485c0,-26.86059 21.75586,-48.61645 48.61645,-48.61645c26.86059,0 48.61645,21.75586 48.61645,48.61645z" fill="#1b1f23" fill-rule="evenodd"/><g fill="#111111" fill-rule="nonzero"><path d="M203.66832,176.70313c0.63227,0 1.26453,0.63227 1.26453,1.26453v40.78115c0,0.31613 0,0.63227 -0.31613,0.9484c0,0 -8.85172,6.00653 -23.39384,6.00653c-17.38731,0 -38.25209,-5.37426 -38.25209,-41.72955c0,-36.67142 17.70345,-43.94248 35.72302,-43.94248c15.49051,0 21.49704,3.47746 22.44544,4.10973c0.63227,0.31613 0.63227,0.63227 0.63227,0.9484l-2.8452,12.64532c0,0.63227 -0.9484,1.58066 -1.58066,1.26453c-2.52906,-0.63227 -6.32266,-2.21293 -15.49051,-2.21293c-10.43239,0 -21.49704,2.8452 -21.49704,26.23903c0,23.39384 10.43239,26.23903 18.01958,26.23903c6.63879,0 8.85172,-0.9484 8.85172,-0.9484v-16.12278h-10.43239c-0.63227,0 -1.26453,-0.63227 -1.26453,-1.26453v-12.96145c0,-0.63227 0.63227,-1.26453 1.26453,-1.26453"/><path d="M340.23776,144.45757v78.08484c0,0.63227 -0.63227,1.26453 -1.26453,1.26453h-14.85825c-0.63227,0 -1.26453,-0.63227 -1.26453,-1.26453v-33.51009h-23.39384v33.51009c0,0.63227 -0.63227,1.26453 -1.26453,1.26453h-14.85825c-0.63227,0 -1.26453,-0.63227 -1.26453,-1.26453v-78.08484c0,-0.63227 0.63227,-1.26453 1.26453,-1.26453h14.85825c0.63227,0 1.26453,0.63227 1.26453,1.26453v28.7681h23.39384v-28.7681c0,-0.63227 0.63227,-1.26453 1.26453,-1.26453h14.85825c0.63227,0 1.26453,0.63227 1.26453,1.26453"/><path d="M212.20391,154.88995c0,-5.41246 4.38766,-9.80012 9.80012,-9.80012c5.41246,0 9.80012,4.38766 9.80012,9.80012c0,5.41246 -4.38766,9.80012 -9.80012,9.80012c-5.41246,0 -9.80012,-4.38766 -9.80012,-9.80012z"/><path d="M230.85576,221.91014c0,1.26453 -0.31613,1.8968 -1.8968,1.8968h-13.59372c-1.26453,0 -2.21293,-0.31613 -2.21293,-1.8968v-51.8458c0,-0.63227 0.63227,-1.26453 1.26453,-1.26453h14.85825c0.63227,0 1.26453,0.63227 1.26453,1.26453"/><path d="M397.14169,169.11594c0.63227,0 1.26453,0.63227 1.26453,1.26453v52.47807c0,0.63227 -0.63227,1.26453 -1.26453,1.26453h-9.48399c-0.31613,0 -0.63227,-0.31613 -0.9484,-0.63227c-0.31613,-0.31613 -0.63227,-3.16133 -0.63227,-3.16133c0,0 -7.90332,5.37426 -17.70345,5.37426c-12.01305,0 -20.54864,-3.7936 -20.54864,-19.28411v-36.03916c0,-0.63227 0.63227,-1.26453 1.26453,-1.26453h14.85825c0.63227,0 1.26453,0.63227 1.26453,1.26453v33.51009c0,5.05813 1.26453,7.58719 6.63879,7.58719c5.37426,0 9.16786,-2.8452 9.16786,-2.8452v-38.25209c0,-0.63227 0.63227,-1.26453 1.26453,-1.26453"/><path d="M431.91631,211.79388c7.58719,0 9.16786,-2.8452 9.16786,-16.43891c0,-12.64532 -5.05813,-14.54212 -10.43239,-13.90985c-4.10973,0.31613 -7.58719,2.52906 -7.58719,2.52906v24.9745c0,0 2.8452,2.8452 9.16786,2.8452zM423.69686,171.32887c0,0 5.69039,-3.7936 14.22598,-3.7936c8.53559,0 20.86477,3.16133 20.86477,27.18743c0,24.0261 -7.90332,30.98103 -21.49704,30.98103c-11.69692,0 -17.70345,-6.00653 -17.70345,-6.00653c0,0 -0.31613,3.16133 -0.63227,3.47746c0,0.31613 -0.63227,0.63227 -0.9484,0.63227h-10.43239c-0.63227,0 -1.26453,-0.63227 -1.26453,-1.26453v-78.08484c0,-0.63227 0.63227,-1.26453 1.26453,-1.26453h14.85825c0.63227,0 1.26453,0.63227 1.26453,1.26453v26.55517z"/><path d="M273.21757,168.7998c0.63227,0 1.26453,0.63227 1.26453,1.26453v12.64532c0,0.63227 -0.63227,1.26453 -1.26453,1.26453h-11.06465c0,0 0,18.33571 0,21.81317c0,3.47746 1.8968,6.00653 7.27106,6.00653c1.8968,0 3.47746,-0.31613 4.10973,-0.31613c0.63227,0 1.26453,0.63227 1.26453,1.26453v10.43239c0,0.63227 -0.31613,0.9484 -0.63227,1.26453c-0.63227,0.31613 -5.05813,1.58066 -8.85172,1.58066c-8.21946,0 -20.23251,-1.58066 -20.23251,-18.96798v-23.07771h-7.90332c-0.63227,0 -1.26453,-0.63227 -1.26453,-1.26453v-9.80012c0,-0.63227 0.31613,-0.9484 0.9484,-1.26453c0.63227,0 8.21946,-1.8968 8.21946,-1.8968v-15.49051c0,-0.9484 0.31613,-1.26453 0.9484,-1.26453h15.49051c0.63227,0 0.9484,0.31613 0.9484,0.9484v14.85825"/></g></g></g></svg>