<svg version="1.1" xmlns="http://www.w3.org/2000/svg" xmlns:xlink="http://www.w3.org/1999/xlink" width="333" height="169" viewBox="0,0,333,169"><g transform="translate(-73.5,-95.5)"><g data-paper-data="{&quot;isPaintingLayer&quot;:true}" fill-rule="nonzero" stroke-linejoin="miter" stroke-miterlimit="10" stroke-dasharray="" stroke-dashoffset="0" style="mix-blend-mode: normal"><g data-paper-data="{&quot;index&quot;:null}" fill="#949494" stroke="#000000" stroke-width="2"><path d="M205.46052,219.58604c0,0 -13.60162,-4.00818 -16.14499,-11.2597c-0.91425,-2.60666 -1.22384,-2.57271 -2.82362,-6.86818c-0.57623,-1.54721 -1.07132,-3.22597 -1.73849,-5.10682c-1.78907,-5.04367 -3.74608,-10.45197 -3.74608,-10.45197c0,0 11.05821,-7.75302 14.39222,-11.02819c0.32191,-0.31623 16.28951,-15.31304 16.61239,-15.63431c7.90229,-7.86299 5.1906,-5.43832 5.1906,-5.43832c0,0 1.33927,-6.04506 2.76837,-6.99741c2.7443,-1.8288 2.57633,-6.40618 7.93336,-3.4443c2.5179,1.39214 2.60061,1.73998 5.51332,4.18105c4.25192,3.56342 10.33832,9.40356 12.92426,14.70509c3.48028,7.13503 2.74016,13.45478 2.74016,13.45478z" stroke-linecap="butt"/><path d="M221.97449,201.98109c0,0 0.25072,-13.29664 -6.82653,-19.98114c-3.39101,-2.91696 -13.31029,-5.94114 -13.31029,-5.94114l-6.61734,-0.75618l5.57152,0.74687c0,0 2.69438,-3.33159 4.17092,-5.15731c1.6718,-2.06717 5.34701,-6.61155 5.34701,-6.61155l-1.38512,-1.05823" stroke-linecap="round"/><path d="M222.73032,159.33603c0,0 2.68126,-1.88789 5.8471,-2.61132c3.8585,-0.88172 8.52523,-0.456 11.04658,1.91327c2.50091,2.35008 5.3783,6.47675 5.45253,10.66482c0.0916,5.16788 -3.08214,10.34707 -4.44688,11.40967c-3.70084,2.88151 -12.35137,-0.45447 -13.98293,-1.69472c-4.49394,-3.4161 -7.64275,-10.20845 -7.86564,-11.84073c-0.41558,-3.04343 3.94923,-7.84099 3.94923,-7.84099" stroke-linecap="round"/><path d="M195.12618,205.45871c-3.57226,-3.63644 -3.27769,-7.96427 -1.49701,-12.19927c0.54968,-1.30734 1.89341,-4.08582 2.9587,-5.13231c4.51619,-4.43648 10.91819,-3.83574 15.5932,0.92326c4.67501,4.759 4.96719,13.43508 0.451,17.87157c-4.51619,4.43649 -12.83089,3.29575 -17.50589,-1.46325z" stroke-linecap="butt"/></g><g><path d="M223.20275,156.07281c-3.96011,-2.55813 -5.67707,-7.78361 -3.83494,-11.67143c1.84214,-3.88782 6.5458,-4.96575 10.50591,-2.40762c3.96011,2.55813 5.67707,7.7836 3.83494,11.67143c-1.84214,3.88782 -6.5458,4.96576 -10.50591,2.40763z" fill="none" stroke="#b90000" stroke-width="2.5" stroke-linecap="butt"/><path d="M221.00951,145.44039c0,0 0.40032,-1.54461 0.02167,-2.71156c-0.33868,-1.04374 -2.18703,-3.9618 -2.18703,-3.9618c0,0 -4.98347,-3.53134 -4.61885,-7.00786c0.04139,-0.39463 1.61375,-8.98364 6.63398,-13.81005c3.58825,-3.4497 10.85742,-3.75608 11.79277,-3.36939c0.72301,0.29891 5.28375,0.79678 9.4952,2.71193c5.93513,2.69899 11.42446,6.75286 11.42446,6.75286l-2.19552,14.11528l-21.67798,-0.29215l0.67847,7.64755z" fill="#949494" stroke="#000000" stroke-width="2.5" stroke-linecap="butt"/><path d="M252.67437,131.64173l-13.53609,-2.81988l-3.42349,-3.47864l-3.36835,-10.38077l11.55617,3.79014l9.07932,5.24948z" fill="#000000" stroke="#000000" stroke-width="2.5" stroke-linecap="round"/><path d="M234.71499,127.06087l1.72554,0.01378" fill="none" stroke="#000000" stroke-width="2.5" stroke-linecap="round"/><path d="M233.70928,129.51806l2.46308,0.2662" fill="none" stroke="#000000" stroke-width="2.5" stroke-linecap="round"/><path d="M234.42712,132.23553l-1.47707,-0.25832" fill="none" stroke="#000000" stroke-width="2.5" stroke-linecap="round"/><path d="M249.66038,138.1429c0,0 -12.96054,-0.51452 -19.63589,0.01674c-1.64242,0.13071 -0.23681,2.05237 -1.25996,2.0555c-9.06525,0.02783 -9.98682,-2.10457 -10.81677,-3.14016c-2.06139,-2.57212 -4.30934,-6.00481 -4.19345,-6.60999c0.14902,-0.77819 1.96041,-2.59304 1.96041,-2.59304l4.05987,1.62566l5.65384,2.01734l5.90627,1.27979l10.35122,0.32923l8.34571,4.50405" fill="#373737" stroke="#000000" stroke-width="2.5" stroke-linecap="round"/><path d="M247.60148,144.01246l-1.49542,2.19381l-12.51581,-2.76991l-2.54104,-1.06731l-0.43008,-2.61996l0.90752,-1.81897l1.52305,-1.1778l1.3376,0.80098l0.88384,1.71047l0.69642,1.4165z" fill="#000000" stroke="#000000" stroke-width="2.5" stroke-linecap="round"/><path d="M225.21192,143.99487l0.26818,-2.70959" fill="none" stroke="#000000" stroke-width="2.5" stroke-linecap="round"/><path d="M230.1617,141.5692l-8.86825,-0.81042" fill="none" stroke="#000000" stroke-width="2.5" stroke-linecap="round"/><path d="M224.67723,118.35248l-1.25024,2.20869l0.47527,2.22249l-3.6818,-2.00159l0.28393,-4.68162l3.48259,-3.9165l1.46327,1.98386l0.21893,3.45304z" fill="#151515" stroke="#000000" stroke-width="2.5" stroke-linecap="round"/><path d="M225.38621,122.18123l-3.455,0.46544l-1.69796,-3.46485l0.99783,-1.47115l2.48277,-2.19884l1.97401,-0.23076l1.22464,0.99586l1.22267,1.24237l0.47134,2.71549z" fill="none" stroke="#000000" stroke-width="2.5" stroke-linecap="round"/><path d="M244.49009,120.60607c2.65941,0.80538 3.27177,2.37316 2.83089,4.24761c-0.44088,1.87445 -2.42312,3.01183 -4.42747,2.54039c-2.00433,-0.47143 -3.27176,-2.37316 -2.83088,-4.24761c0.44088,-1.87445 1.68812,-3.36996 4.42747,-2.54039z" fill="#54ff00" stroke="none" stroke-width="0" stroke-linecap="butt"/><path d="M237.17197,123.3757c-1.03238,0.10636 -1.13874,-0.92601 -1.13874,-0.92601l-0.02444,-1.43434c0.64123,-1.56324 1.21829,-2.76209 2.48478,-3.89915c0,0 0.78117,-0.68328 1.46445,0.0979c0.68328,0.78117 -0.0979,1.46444 -0.0979,1.46444c-1.04202,0.87925 -1.42218,1.87851 -1.93036,3.12306l0.16819,0.43536c0,0 0.10637,1.03238 -0.92601,1.13874z" fill="#54ff00" stroke="none" stroke-width="0.5" stroke-linecap="butt"/></g><g fill="#ff0000" stroke-linecap="butt" font-family="Sans Serif" font-weight="normal" font-size="40" text-anchor="start"><text transform="translate(102.30295,227.59125) scale(1.6854,1.6854)" font-size="40" xml:space="preserve" fill="#ff0000" fill-rule="nonzero" stroke="#b20000" stroke-width="15" stroke-linecap="butt" stroke-linejoin="miter" stroke-miterlimit="10" stroke-dasharray="" stroke-dashoffset="0" font-family="Sans Serif" font-weight="normal" text-anchor="start" style="mix-blend-mode: normal"><tspan x="0" dy="0">Gvbvdxx</tspan></text><text transform="translate(102.30295,227.59125) scale(1.6854,1.6854)" font-size="40" xml:space="preserve" fill="#ff0000" fill-rule="nonzero" stroke="#ff0000" stroke-width="2" stroke-linecap="butt" stroke-linejoin="miter" stroke-miterlimit="10" stroke-dasharray="" stroke-dashoffset="0" font-family="Sans Serif" font-weight="normal" text-anchor="start" style="mix-blend-mode: normal"><tspan x="0" dy="0">Gvbvdxx</tspan></text></g><g><path d="M236.77232,186.75795l-10.55011,-12.16215c0,0 -3.40941,-4.7007 -2.6055,-6.57842c0.45638,-1.066 1.63123,-4.92083 3.17403,-6.44646c1.93194,-1.91042 5.09301,-1.13652 6.3263,-1.43283c0.53849,-0.12938 4.21639,2.68117 4.21639,2.68117c0,0 2.03931,2.9914 3.38926,4.97159c2.00358,2.93897 7.4659,10.95145 7.4659,10.95145z" data-paper-data="{&quot;index&quot;:null}" fill="#949494" stroke="#000000" stroke-width="2.5" stroke-linecap="butt"/><g><path d="M251.94939,183.32469l-6.16178,0.1127l-0.09468,-5.17589l6.16179,-0.11271z" fill="#000000" stroke="none" stroke-width="0" stroke-linecap="butt"/><path d="M281.91079,175.25168c0,0 1.16736,0.60788 0.67848,1.56668c-1.28106,2.51245 -8.64856,14.0644 -8.64856,14.0644c0,0 -5.33565,0.32668 -8.20752,0.50252c-3.17242,0.19424 -10.01527,0.6132 -10.01527,0.6132c0,0 1.81603,-7.40647 2.26191,-10.43818c0.17299,-1.17616 12.05957,-2.44837 12.44877,-3.17293c0.40454,-0.75313 1.67452,2.94707 2.43096,3.31257c0.85408,0.41269 1.19157,-2.47286 1.47877,-2.95c0.8092,-1.34435 2.71071,-3.5474 2.71071,-3.5474l4.86174,0.04915z" fill="#949494" stroke="#000000" stroke-width="2.5" stroke-linecap="butt"/><path d="M253.98321,192.96839l-4.55224,-9.64549l1.04858,-2.91152l2.05061,-1.72412l2.91076,-0.09085l2.82972,1.991z" fill="#242424" stroke="#000000" stroke-width="2.5" stroke-linecap="butt"/><path d="M256.4027,186.08073l-1.86184,1.18112l-2.28221,-0.51055" fill="none" stroke="#000000" stroke-width="2.5" stroke-linecap="round"/><path d="M276.42072,186.0456l-4.05186,-4.7407" fill="none" stroke="#000000" stroke-width="2.5" stroke-linecap="round"/><path d="M274.65041,190.34637c0,0 -3.73596,-0.43412 -5.77299,-0.16648c-3.10176,0.40754 -11.55877,1.24576 -11.55877,1.24576l0.84726,-10.54453l3.40216,0.40011l8.45609,-1.19047z" fill="#6e0000" stroke="none" stroke-width="NaN" stroke-linecap="butt"/><path d="M261.33411,190.82314l-4.05714,0.29328l1.25579,-10.07773l3.58883,0.48475z" fill="#e30000" stroke="none" stroke-width="NaN" stroke-linecap="butt"/><path d="M274.10033,189.68864l-7.10702,-8.8204l2.9826,-0.93022l3.91262,2.11499l1.39462,-2.87892l2.43913,-2.64503l1.3838,-0.2755l2.84447,0.14165z" fill="#e30000" stroke="none" stroke-width="0" stroke-linecap="butt"/></g></g><path d="M73.5,264.5v-169h333v169z" fill="none" stroke="none" stroke-width="none" stroke-linecap="butt"/></g></g></svg>